<svg width="18px" height="18px" viewBox="0 0 18 18" version="1.1" xmlns="http://www.w3.org/2000/svg" xmlns:xlink="http://www.w3.org/1999/xlink">
    <g transform="translate(1.000000, 1.000000)">
        <path d="M7.93555556,1 C7.93555556,0.657583455 8.21313901,0.38 8.55555556,0.38 C13.0697701,0.38 16.7311111,4.01441937 16.7311111,8.5 L16.7311111,9.03081833 L16.1603098,9.11982032 L16.0558789,9.12715844 L7.97214048,9.01095197 L7.97214048,1.21032418 C7.94846149,1.14465237 7.93555556,1.07383336 7.93555556,1 Z M9.21214048,7.78864927 L15.4631915,7.87851024 C15.1659168,4.58540889 12.5292182,1.95937042 9.21214048,1.65042272 L9.21214048,7.78864927 Z" id="Oval-10"></path>
        <path d="M6.38552184,0.669299251 C6.71586725,0.579182671 7.05671904,0.773926617 7.14683562,1.10427203 C7.2369522,1.43461744 7.04220826,1.77546924 6.71186284,1.86558582 C6.55197321,1.90920291 6.39391458,1.9584907 6.23793486,2.01333341 C3.49189854,2.97884406 1.62,5.56353067 1.62,8.5 C1.62,12.2986906 4.72413389,15.38 8.55555556,15.38 C11.6866424,15.38 14.4045075,13.3038691 15.2353529,10.358211 C15.3283073,10.0286529 15.6708214,9.83684765 16.0003796,9.92980205 C16.3299377,10.0227564 16.5217429,10.3652705 16.4287885,10.6948287 C15.4478271,14.1727042 12.2440696,16.62 8.55555556,16.62 C4.041341,16.62 0.38,12.9855806 0.38,8.5 C0.38,5.03197471 2.5889351,1.98191358 5.82663171,0.843534406 C6.0105794,0.77885811 6.19697629,0.720733535 6.38552184,0.669299251 Z" id="Oval-11"></path>
    </g>
</svg>