<svg width="18px" height="18px" viewBox="0 0 18 18" version="1.1" xmlns="http://www.w3.org/2000/svg" xmlns:xlink="http://www.w3.org/1999/xlink">
    <g transform="translate(0.000000, 1.000000)">
        <path d="M11.1813852,12.3918608 C11.2882285,12.1870474 11.5000787,12.0586183 11.7310852,12.0586183 L15.5040061,12.0586183 C15.7138743,12.0586183 15.8840061,11.8884865 15.8840061,11.6786183 L15.8840061,5.33669939 C15.8840061,5.12683118 15.7138743,4.95669939 15.5040061,4.95669939 L12.8439909,4.95669939 C12.5015743,4.95669939 12.2239909,4.67911593 12.2239909,4.33669939 L12.2239909,2.28344727 C12.2239909,2.07357906 12.0538591,1.90344727 11.8439909,1.90344727 L2.04175963,1.90344727 C1.83189143,1.90344727 1.66175963,2.07357906 1.66175963,2.28344727 L1.66175963,8.90063056 C1.66175963,9.11049876 1.83189143,9.28063056 2.04175963,9.28063056 L4.40375254,9.28063056 C4.74616908,9.28063056 5.02375254,9.55821401 5.02375254,9.90063056 L5.02375254,11.6786183 C5.02375254,11.8884865 5.19388433,12.0586183 5.40375254,12.0586183 L9.2341785,12.0586183 C9.47074014,12.0586183 9.68668558,12.1932332 9.79084467,12.4056297 L10.4611575,13.7725017 L11.1813852,12.3918608 Z M2.04175963,10.5206306 C1.14705834,10.5206306 0.421759635,9.79533185 0.421759635,8.90063056 L0.421759635,2.28344727 C0.421759635,1.38874597 1.14705834,0.663447266 2.04175963,0.663447266 L11.8439909,0.663447266 C12.7386922,0.663447266 13.4639909,1.38874597 13.4639909,2.28344727 L13.4639909,3.71669939 L15.5040061,3.71669939 C16.3987074,3.71669939 17.1240061,4.44199809 17.1240061,5.33669939 L17.1240061,11.6786183 C17.1240061,12.5733196 16.3987074,13.2986183 15.5040061,13.2986183 L12.1069453,13.2986183 L10.993767,15.4325263 C10.7587147,15.8831098 10.1111668,15.875051 9.88740077,15.4187574 L8.84768642,13.2986183 L5.40375254,13.2986183 C4.50905124,13.2986183 3.78375254,12.5733196 3.78375254,11.6786183 L3.78375254,10.5206306 L2.04175963,10.5206306 Z" id="Path-2"></path>
        <path d="M4.89653398,7.99992002 C4.89653398,8.34233657 4.61895052,8.61992002 4.27653398,8.61992002 C3.93411743,8.61992002 3.65653398,8.34233657 3.65653398,7.99992002 L3.65653398,5.0587074 C3.65653398,4.16400611 4.38183268,3.4387074 5.27653398,3.4387074 L10.7712982,3.4387074 C11.1137147,3.4387074 11.3912982,3.71629086 11.3912982,4.0587074 C11.3912982,4.40112395 11.1137147,4.6787074 10.7712982,4.6787074 L5.27653398,4.6787074 C5.06666577,4.6787074 4.89653398,4.8488392 4.89653398,5.0587074 L4.89653398,7.99992002 Z" id="Path-10"></path>
        <path d="M6.22349138,9.24284483 C5.88107483,9.24284483 5.60349138,8.96526137 5.60349138,8.62284483 C5.60349138,8.28042828 5.88107483,8.00284483 6.22349138,8.00284483 L14.7307049,8.00284483 C15.0731214,8.00284483 15.3507049,8.28042828 15.3507049,8.62284483 C15.3507049,8.96526137 15.0731214,9.24284483 14.7307049,9.24284483 L6.22349138,9.24284483 Z" id="Path-15"></path>
    </g>
</svg>