<svg width="20px" height="18px" viewBox="0 0 18 18" version="1.1" xmlns="http://www.w3.org/2000/svg" xmlns:xlink="http://www.w3.org/1999/xlink">
    <g transform="translate(2.000000, 2.000000)">
        <path d="M13.4124306,0.00417827298 L2.41736163,0.00417827298 C1.07618204,0.00417827298 0,1.08718663 0,2.41084262 C0,2.50232591 0.0172815009,2.58948468 0.0268048501,2.67827298 L0,12.3050348 C0,13.7763301 1.19501688,14.9791295 2.68347059,14.9791295 L11.9472391,14.9791295 C13.0518086,14.9791295 13.9472391,14.083699 13.9472391,12.9791295 L13.9472391,4.74788997 C13.9472391,4.19560522 13.4995238,3.74788997 12.9472391,3.74788997 L2.41736163,3.74788997 C1.70491922,3.74788997 1.11575733,3.15478412 1.11575733,2.41084262 C1.11575733,1.66692201 1.70491922,1.07379526 2.41736163,1.07379526 L13.4124306,1.07379526 C13.7077971,1.07379526 13.9472391,0.834353345 13.9472391,0.538986769 L13.9472391,0.538986769 C13.9472391,0.243620192 13.7077971,0.00417827298 13.4124306,0.00417827298 Z M6.41568638,4.81750696 L9.48410077,4.81750696 L9.48410077,7.69537604 L8.2952294,6.79794568 C8.09286367,6.64502089 7.80753367,6.64502089 7.60516795,6.79794568 L6.41568638,7.69537604 L6.41568638,4.81750696 Z M2.41736163,4.81750696 L5.29992905,4.81750696 L5.29992905,8.79716574 C5.29984188,9.00206825 5.42183664,9.18902507 5.61422137,9.27856546 C5.80651893,9.36808496 6.03525365,9.34433148 6.20314354,9.21752089 L7.94994806,7.89866992 L9.69666541,9.21752089 C9.86462068,9.34433148 10.0933554,9.36808496 10.285653,9.27856546 C10.4779723,9.18902507 10.6000324,9.00206825 10.5998581,8.79716574 L10.5998581,4.81750696 L12.8314817,4.81750696 L12.8314817,12.9095125 C12.8314817,13.4617973 12.3837665,13.9095125 11.8314817,13.9095125 L2.68347059,13.9095125 C1.82377585,13.9095125 1.11575733,13.1965947 1.11575733,12.3050348 L1.11575733,4.43356546 C1.49126495,4.67364903 1.93587678,4.81750696 2.41736163,4.81750696 Z"></path>
        <path d="M3.32033365,2.94570334 L12.2966514,2.94570334 C12.592018,2.94570334 12.8314599,2.70626142 12.8314599,2.41089485 L12.8314599,2.41089485 C12.8314599,2.11552827 12.592018,1.87608635 12.2966514,1.87608635 L3.32033365,1.87608635 C3.02496707,1.87608635 2.78552515,2.11552827 2.78552515,2.41089485 L2.78552515,2.41089485 C2.78552515,2.70626142 3.02496707,2.94570334 3.32033365,2.94570334 Z" id="Fill-4"></path>
    </g>
</svg>