<svg width="18px" height="18px" viewBox="0 0 18 18" version="1.1" xmlns="http://www.w3.org/2000/svg" xmlns:xlink="http://www.w3.org/1999/xlink">

        <g id="2收起" transform="translate(-349.000000, -154.000000)">
            <g id="任务" transform="translate(347.000000, 152.000000)">
                <rect id="Rectangle-71-Copy-3" x="0" y="0"></rect>
                <path d="M3.69626592,3.40065303 C3.38399199,3.40065303 3.13084395,3.65434615 3.13084395,3.96729249 L3.13084395,7.36712923 C3.13084395,7.68007556 3.38399199,7.93376869 3.69626592,7.93376869 L7.08879776,7.93376869 C7.4010717,7.93376869 7.65421974,7.68007556 7.65421974,7.36712923 L7.65421974,3.96729249 C7.65421974,3.65434615 7.4010717,3.40065303 7.08879776,3.40065303 L3.69626592,3.40065303 Z M3.69626592,2.26737411 L7.08879776,2.26737411 C8.02561956,2.26737411 8.78506368,3.02845349 8.78506368,3.96729249 L8.78506368,7.36712923 C8.78506368,8.30596822 8.02561956,9.0670476 7.08879776,9.0670476 L3.69626592,9.0670476 C2.75944412,9.0670476 2,8.30596822 2,7.36712923 L2,3.96729249 C2,3.02845349 2.75944412,2.26737411 3.69626592,2.26737411 Z M3.69626592,11.3336054 C3.38399199,11.3336054 3.13084395,11.5872986 3.13084395,11.9002449 L3.13084395,15.3000816 C3.13084395,15.613028 3.38399199,15.8667211 3.69626592,15.8667211 L7.08879776,15.8667211 C7.4010717,15.8667211 7.65421974,15.613028 7.65421974,15.3000816 L7.65421974,11.9002449 C7.65421974,11.5872986 7.4010717,11.3336054 7.08879776,11.3336054 L3.69626592,11.3336054 Z M3.69626592,10.2003265 L7.08879776,10.2003265 C8.02561956,10.2003265 8.78506368,10.9614059 8.78506368,11.9002449 L8.78506368,15.3000816 C8.78506368,16.2389206 8.02561956,17 7.08879776,17 L3.69626592,17 C2.75944412,17 2,16.2389206 2,15.3000816 L2,11.9002449 C2,10.9614059 2.75944412,10.2003265 3.69626592,10.2003265 Z M11.6121736,11.3336054 C11.2998996,11.3336054 11.0467516,11.5872986 11.0467516,11.9002449 L11.0467516,15.3000816 C11.0467516,15.613028 11.2998996,15.8667211 11.6121736,15.8667211 L15.0047054,15.8667211 C15.3169793,15.8667211 15.5701274,15.613028 15.5701274,15.3000816 L15.5701274,11.9002449 C15.5701274,11.5872986 15.3169793,11.3336054 15.0047054,11.3336054 L11.6121736,11.3336054 Z M11.6121736,10.2003265 L15.0047054,10.2003265 C15.9415272,10.2003265 16.7009713,10.9614059 16.7009713,11.9002449 L16.7009713,15.3000816 C16.7009713,16.2389206 15.9415272,17 15.0047054,17 L11.6121736,17 C10.6753518,17 9.91590763,16.2389206 9.91590763,15.3000816 L9.91590763,11.9002449 C9.91590763,10.9614059 10.6753518,10.2003265 11.6121736,10.2003265 Z M10.945541,5.28246267 C10.8393678,5.38874624 10.7797103,5.53296873 10.7797103,5.68336008 C10.7797103,5.83375143 10.8393678,5.97797392 10.945541,6.0842575 L12.924518,8.0674956 C13.0305732,8.17389748 13.1744858,8.23368339 13.324554,8.23368339 C13.4746222,8.23368339 13.6185348,8.17389748 13.72459,8.0674956 L15.703567,6.0842575 C15.8097402,5.97797392 15.8693977,5.83375143 15.8693977,5.68336008 C15.8693977,5.53296873 15.8097402,5.38874624 15.703567,5.28246267 L13.72459,3.29922457 C13.6185348,3.19282268 13.4746222,3.13303677 13.324554,3.13303677 C13.1744858,3.13303677 13.0305732,3.19282268 12.924518,3.29922457 L10.945541,5.28246267 Z M10.1460344,4.48123447 L12.1250113,2.49799637 C12.4431311,2.17913756 12.8746265,2 13.324554,2 C13.7744815,2 14.2059769,2.17913756 14.5240967,2.49799637 L16.5030736,4.48123447 C16.8212473,4.80003928 17,5.23246381 17,5.68336008 C17,6.13425635 16.8212473,6.56668088 16.5030736,6.88548569 L14.5240967,8.86872379 C14.2059769,9.1875826 13.7744815,9.36672016 13.324554,9.36672016 C12.8746265,9.36672016 12.4431311,9.1875826 12.1250113,8.86872379 L10.1460344,6.88548569 C9.82786066,6.56668088 9.649108,6.13425635 9.649108,5.68336008 C9.649108,5.23246381 9.82786066,4.80003928 10.1460344,4.48123447 Z" id="Shape-Copy"></path>
            </g>
        </g>
</svg>