<svg width="20px" height="20px" viewBox="0 0 20 20" version="1.1" xmlns="http://www.w3.org/2000/svg" xmlns:xlink="http://www.w3.org/1999/xlink">
    <!-- Generator: Sketch 46.1 (44463) - http://www.bohemiancoding.com/sketch -->
    <title>允许打断</title>
    <desc>Created with Sketch.</desc>
    <defs>
        <rect id="path-1" x="1" y="1" width="18" height="18" rx="2"></rect>
    </defs>
    <g id="Page-1" stroke="none" stroke-width="1" fill="none" fill-rule="evenodd">
        <g id="Artboard-2-Copy-6">
            <g id="Rectangle-10-Copy-8">
                <use fill="#FFA0A7" fill-rule="evenodd" xlink:href="#path-1"></use>
                <rect stroke="#FFA0A7" stroke-width="1" x="1.5" y="1.5" width="17" height="17" rx="2"></rect>
            </g>
            <g id="Group" transform="translate(4.000000, 4.000000)" fill="#FFFFFF">
                <path d="M8.20779221,5.40752351 L8.20779221,6.25454545 C8.20779221,7.81875 6.93384589,9.09090909 5.36796537,9.09090909 C3.80147443,9.09059827 2.53095762,7.82163087 2.52813853,6.25454545 L2.52813853,5.14754642 L2.52813853,5.19087593 L2.52813853,5.40752351 L8.20779221,5.40752351 Z M8.20779221,3.6743429 L8.20779221,2.83693182 C8.20497361,1.26975433 6.93454825,0.000624084781 5.36796537,0 C3.80208485,0 2.52813853,1.27272727 2.52813853,2.83693182 L2.52813853,3.93431999 L2.52813853,3.89099048 L2.52813853,3.6743429 L8.20779221,3.6743429 Z" id="Combined-Shape" fill-rule="nonzero"></path>
                <path d="M8.9636565,6.16450216 C8.75948962,6.16450216 8.59397966,6.33006879 8.59397966,6.53430558 C8.51141882,8.26128661 7.08767029,9.61903934 5.35930736,9.61903934 C3.63094443,9.61903934 2.2071959,8.26128661 2.12463506,6.53430558 C2.12463506,6.33006879 1.9591251,6.16450216 1.75495822,6.16450216 C1.55079134,6.16450216 1.38528139,6.33006879 1.38528139,6.53430558 C1.39233028,8.58091165 2.95562875,10.2857468 4.9933273,10.4690139 L4.9933273,11.6303232 L4.9933273,11.6303232 C4.9933273,11.83449 5.15883726,12 5.36300413,12 L5.36300413,12 L5.36300413,12 C5.56717101,12 5.73268096,11.83449 5.73268096,11.6303232 L5.73268096,10.47641 C7.77026976,10.2892926 9.33044883,8.58116081 9.33333333,6.53430558 C9.33333333,6.33006879 9.16782338,6.16450216 8.9636565,6.16450216 Z" id="Shape" fill-rule="nonzero"></path>
                <path d="M10.7549518,4.17316017 L0.365092724,4.17316017 L0.365092724,4.17316017 C0.16345758,4.17316017 -2.46931833e-17,4.33661775 0,4.5382529 C2.46931833e-17,4.73988804 0.16345758,4.90334562 0.365092724,4.90334562 L11.6349073,4.90334562 C11.8365424,4.90334562 12,4.73988804 12,4.5382529 C12,4.40052017 11.9237312,4.28060097 11.8111232,4.21842487 C11.7946481,4.18781384 11.7734881,4.15905833 11.7476434,4.13321359 L11.7476434,4.13321359 L10.5057018,2.89127203 L10.5057018,2.89127203 C10.3631243,2.74869445 10.1319603,2.74869445 9.98938277,2.89127203 C9.84680519,3.0338496 9.84680519,3.26501353 9.98938277,3.40759111 L9.98938277,3.40759111 L10.7549518,4.17316017 Z" id="Combined-Shape"></path>
            </g>
        </g>
    </g>
</svg>