<svg width="20px" height="20px" viewBox="0 0 20 20" version="1.1" xmlns="http://www.w3.org/2000/svg" xmlns:xlink="http://www.w3.org/1999/xlink">
    <!-- Generator: Sketch 46.1 (44463) - http://www.bohemiancoding.com/sketch -->
    <title>未匹配继续流程</title>
    <desc>Created with Sketch.</desc>
    <defs>
        <rect id="path-1" x="1" y="1" width="18" height="18" rx="2"></rect>
    </defs>
    <g id="Page-1" stroke="none" stroke-width="1" fill="none" fill-rule="evenodd">
        <g id="Artboard-2-Copy-6">
            <g id="Rectangle-10-Copy-3">
                <use fill="#FECF73" fill-rule="evenodd" xlink:href="#path-1"></use>
                <rect stroke="#FECF73" stroke-width="1" x="1.5" y="1.5" width="17" height="17" rx="2"></rect>
            </g>
            <g id="流程-(1)-copy" transform="translate(5.000000, 5.000000)" fill-rule="nonzero" fill="#FFFFFF">
                <path d="M10,7.88999999 C9.8715,7.83999999 9.79,7.68149999 9.63399999,7.70399999 C9.23549999,7.7605 9.21,7.54099999 9.21899999,7.224 C9.23999999,6.522 9.2205,5.8185 9.228,5.11549999 C9.232,4.75 9.061,4.6045 8.70399999,4.608 C7.715,4.6165 6.725,4.597 5.736,4.62049999 C5.4295,4.62699999 5.33999999,4.52899999 5.388,4.25049999 C5.3905,4.238 5.388,4.224 5.388,4.2105 C5.3955,3.848 5.2715,3.38899999 5.44749999,3.148 C5.61649999,2.91449999 6.10349999,3.0855 6.4495,3.0735 C6.753,3.063 6.9215,2.9235 6.92499999,2.627 C6.93499999,1.89850001 6.926,1.1695 6.92899999,0.440500003 C6.9295,0.256 6.80399999,0.140500006 6.719,0 L3.2815,0 C3.118,0.181500004 3.06150001,0.390499999 3.0665,0.635999998 C3.07850001,1.26 3.0665,1.8855 3.0725,2.51 C3.076,2.949 3.193,3.06 3.628,3.07 C3.65399999,3.07 3.68,3.0685 3.7065,3.07 C4.0005,3.096 4.4995,2.955 4.551,3.132 C4.676,3.5635 4.617,4.0555 4.5985,4.5215 C4.591,4.68249999 4.4055,4.60699999 4.304,4.608 C3.3275,4.61399999 2.3525,4.611 1.376,4.6115 C0.880999996,4.6115 0.775999993,4.7115 0.775,5.1945 C0.773000004,5.936 0.768,6.678 0.777999998,7.4205 C0.780499996,7.6155 0.737,7.72049999 0.521999999,7.6905 C0.312999995,7.66149999 0.159,7.78299999 0,7.89049999 L0,9.76549999 L0.234999999,10 L2.5,10 C2.6435,9.8235 2.69999999,9.625 2.694,9.39499999 C2.68299999,9.00499999 2.69649999,8.61499999 2.689,8.225 C2.681,7.806 2.574,7.706 2.1475,7.68999999 C1.545,7.66799999 1.545,7.66799999 1.545,7.069 C1.545,6.588 1.553,6.1065 1.541,5.6265 C1.5375,5.4385 1.59750001,5.382 1.784,5.384 C2.65499999,5.393 3.52599999,5.392 4.3975,5.384 C4.57249999,5.383 4.6165,5.443 4.6155,5.609 C4.60704919,6.22013745 4.60704919,6.83136255 4.6155,7.4425 C4.617,7.617 4.582,7.686 4.3835,7.696 C3.455,7.7435 3.455,7.751 3.455,8.70399999 C3.455,8.92499999 3.46749999,9.1475 3.45149999,9.367 C3.4355,9.6145 3.5015,9.823 3.672,9.9995 L6.328,9.9995 C6.499,9.823 6.5595,9.6145 6.549,9.367 C6.53399999,9.004 6.549,8.639 6.54449999,8.27499999 C6.5385,7.81349999 6.42649999,7.702 5.9685,7.68999999 C5.3885,7.67499999 5.3885,7.67499999 5.3885,7.09099999 C5.3885,6.60949999 5.39700001,6.12849999 5.3835,5.6475 C5.378,5.4475 5.4315,5.3805 5.642,5.3835 C6.49949999,5.3945 7.35749999,5.393 8.21599999,5.384 C8.40249999,5.382 8.462,5.4385 8.459,5.6255 C8.4482052,6.236619 8.4482052,6.847881 8.459,7.459 C8.4625,7.65899999 8.3755,7.68649999 8.204,7.694 C7.309,7.7335 7.309,7.73749999 7.30899999,8.65499999 C7.30899999,8.88899999 7.31899999,9.123 7.3065,9.3565 C7.294,9.598 7.34399999,9.8135 7.5005,10 L9.76549999,10 L10,9.765 L10,7.88999999 L10,7.88999999 Z" id="Shape"></path>
            </g>
        </g>
    </g>
</svg>