<svg width="20px" height="20px" viewBox="0 0 20 20" version="1.1" xmlns="http://www.w3.org/2000/svg" xmlns:xlink="http://www.w3.org/1999/xlink">
    <!-- Generator: Sketch 46.1 (44463) - http://www.bohemiancoding.com/sketch -->
    <title>转为人工坐席</title>
    <desc>Created with Sketch.</desc>
    <defs>
        <rect id="path-1" x="1" y="1" width="18" height="18" rx="2"></rect>
    </defs>
    <g id="Page-1" stroke="none" stroke-width="1" fill="none" fill-rule="evenodd">
        <g id="Artboard-2-Copy-6">
            <g id="Rectangle-10-Copy-4">
                <use fill="#9CCDFF" fill-rule="evenodd" xlink:href="#path-1"></use>
                <rect stroke="#9CCDFF" stroke-width="1" x="1.5" y="1.5" width="17" height="17" rx="2"></rect>
            </g>
            <g id="客服-(3)-copy-3" transform="translate(4.000000, 6.000000)" fill-rule="nonzero" fill="#FFFFFF">
                <path d="M5.98614292,1.6471363 C7.99033285,1.6471363 9.6171117,3.29217233 9.6171117,5.31887205 C9.6171117,5.450742 9.61024115,5.58961044 9.5965168,5.71451578 C9.18471944,5.90888076 8.73855258,6.0615598 8.27179083,6.1726376 C7.85992644,6.26982009 7.42063013,6.33917806 6.96769327,6.37386551 C6.85781472,6.16568993 6.63817495,6.02688929 6.39113675,6.02688927 L5.66356219,6.02688927 C5.30661194,6.02688927 5.01146313,6.32526579 5.01146313,6.686239 C5.01146313,7.04719527 5.30661194,7.34557178 5.66356219,7.34557178 L6.39113675,7.34557178 C6.65876984,7.34557178 6.8921172,7.17904828 6.98822113,6.94999584 C7.47559455,6.90829295 7.94915982,6.83891804 8.39532668,6.73480482 C8.76595101,6.64460388 9.11606422,6.54045679 9.45235255,6.40167308 C8.99254513,7.90087609 7.6128715,8.99060782 5.97927238,8.99060782 C3.97504892,8.99060782 2.34827008,7.34557178 2.34827008,5.31885511 C2.34827008,3.29217233 3.97504892,1.6471363 5.98614292,1.6471363 L5.98614292,1.6471363 Z M6.0135581,0.00913263158 C4.55847599,0.00913263158 3.24747436,0.606055096 2.29340622,1.57083067 C1.6824802,2.18852834 1.22263926,2.95205904 0.968663476,3.81272139 L0.783342944,3.81272139 C0.357804496,3.81272139 0.0077247899,4.16671306 0.0077247899,4.59704424 L0.0077247899,5.81864592 C0.0077247899,6.24896015 0.357804482,6.60296877 0.783342944,6.60296877 L1.79919577,6.60296877 L1.79919577,3.91683461 C2.01881879,3.24358957 2.38951014,2.64665015 2.87678301,2.16078853 C3.67990012,1.34872589 4.79184011,0.842021303 6.02044541,0.842021303 C7.24911774,0.842021303 8.36102421,1.34177824 9.16407429,2.16078853 C9.62394875,2.62580716 9.98776954,3.20188666 10.207359,3.83356438 L10.207359,6.60989948 L11.2163748,6.60989948 C11.6419468,6.60989948 11.9919595,6.25589087 11.9919595,5.82559359 L11.9919595,4.59704424 C11.9919595,4.16669612 11.6419468,3.81272139 11.2163748,3.81272139 L11.0585533,3.81272139 C10.8045775,2.95205903 10.3446863,2.18852833 9.73376025,1.57081372 C8.78661294,0.606038155 7.46869048,0.00913263158 6.0135581,0.00913263158 Z" id="Shape"></path>
            </g>
        </g>
    </g>
</svg>