<svg width="20px" height="20px" viewBox="0 0 20 20" version="1.1" xmlns="http://www.w3.org/2000/svg" xmlns:xlink="http://www.w3.org/1999/xlink">
    <!-- Generator: Sketch 46.1 (44463) - http://www.bohemiancoding.com/sketch -->
    <title>结束</title>
    <desc>Created with Sketch.</desc>
    <defs>
        <rect id="path-1" x="1" y="1" width="18" height="18" rx="2"></rect>
    </defs>
    <g id="Page-1" stroke="none" stroke-width="1" fill="none" fill-rule="evenodd">
        <g id="Artboard-2-Copy-6">
            <g id="Rectangle-10-Copy-8">
                <use fill="#B4BDCE" fill-rule="evenodd" xlink:href="#path-1"></use>
                <rect stroke="#B4BDCE" stroke-width="1" x="1.5" y="1.5" width="17" height="17" rx="2"></rect>
            </g>
            <path d="M6.23773043,8.83773087 L3.99545128,8.83773087 L3.99545128,10.025066 L6.06009097,10.025066 C6.21203492,10.025066 6.32543255,10.0585969 6.40028729,10.1256596 C6.47514202,10.1927224 6.51256883,10.281222 6.51256883,10.3911609 C6.51256883,10.5010999 6.47570063,10.5906989 6.40196313,10.6599604 C6.32822563,10.729222 6.21426938,10.7638522 6.06009097,10.7638522 L3.99545128,10.7638522 L3.99545128,12.1391821 L6.31481925,12.1391821 C6.47123213,12.1391821 6.58909864,12.1749117 6.66842231,12.246372 C6.74774599,12.3178324 6.78740723,12.4129282 6.78740723,12.5316623 C6.78740723,12.6459988 6.74774599,12.7388959 6.66842231,12.8103562 C6.58909864,12.8818165 6.47123213,12.9175462 6.31481925,12.9175462 L3.61000718,12.9175462 C3.39326362,12.9175462 3.23741169,12.8702731 3.14244673,12.7757256 C3.04748177,12.6811781 3,12.5283652 3,12.3172823 L3,8.68271768 C3,8.54199578 3.02122714,8.42711126 3.06368207,8.33806069 C3.10613699,8.24901011 3.17261147,8.18414708 3.26310749,8.14346966 C3.35360352,8.10279223 3.46923559,8.08245383 3.61000718,8.08245383 L6.23773043,8.08245383 C6.39637778,8.08245383 6.51424429,8.11708409 6.59133349,8.18634565 C6.6684227,8.25560721 6.70696672,8.34630551 6.70696672,8.45844327 C6.70696672,8.57277982 6.6684227,8.66457749 6.59133349,8.73383905 C6.51424429,8.80310061 6.39637778,8.83773087 6.23773043,8.83773087 Z M8.87550874,8.58707124 L10.7893225,11.4366755 L10.7893225,8.56068602 C10.7893225,8.37378974 10.8301009,8.23361964 10.9116591,8.1401715 C10.9932172,8.04672337 11.1032632,8 11.2418003,8 C11.3848064,8 11.4976454,8.04672337 11.5803208,8.1401715 C11.6629962,8.23361964 11.7043333,8.37378974 11.7043333,8.56068602 L11.7043333,12.3634565 C11.7043333,12.7878209 11.5255784,13 11.1680632,13 C11.0786844,13 10.9982447,12.9873572 10.9267417,12.9620712 C10.8552386,12.9367853 10.7882056,12.8966581 10.7256404,12.8416887 C10.6630753,12.7867192 10.6049799,12.7224058 10.5513526,12.6487467 C10.4977254,12.5750876 10.4440989,12.4997805 10.3904716,12.4228232 L8.52358152,9.60620053 L8.52358152,12.439314 C8.52358152,12.6240115 8.48001001,12.7636319 8.39286569,12.8581794 C8.30572137,12.9527269 8.19399956,13 8.05769691,13 C7.91692532,13 7.80408629,12.9521773 7.71917644,12.8565303 C7.63426659,12.7608834 7.59181231,12.6218127 7.59181231,12.439314 L7.59181231,8.7091029 C7.59181231,8.55079077 7.6096878,8.42656158 7.64543931,8.33641161 C7.68789424,8.23746652 7.75827898,8.15666258 7.85659564,8.09399736 C7.95491231,8.03133214 8.06104803,8 8.17500599,8 C8.26438477,8 8.34091421,8.01429185 8.4045966,8.04287599 C8.46827899,8.07146013 8.52413989,8.10993819 8.57218099,8.15831135 C8.62022209,8.2066845 8.66937969,8.26934878 8.71965525,8.34630607 C8.76993082,8.42326336 8.82188147,8.50351761 8.87550874,8.58707124 Z M13.4103424,8.08245383 L14.7074455,8.08245383 C15.0448505,8.08245383 15.3342099,8.11323628 15.5755327,8.17480211 C15.8168554,8.23636794 16.0358302,8.35180214 16.2324635,8.52110818 C16.7441571,8.952069 17,9.60729551 17,10.4868074 C17,10.7770463 16.974304,11.0419953 16.9229112,11.2816623 C16.8715184,11.5213293 16.7921959,11.7373561 16.6849413,11.9297493 C16.5776868,12.1221426 16.440269,12.2941945 16.2726837,12.4459103 C16.14085,12.5624456 15.9967289,12.6558923 15.840316,12.7262533 C15.6839031,12.7966142 15.5157618,12.846086 15.335887,12.8746702 C15.1560122,12.9032543 14.9532371,12.9175462 14.7275557,12.9175462 L13.4304525,12.9175462 C13.2494604,12.9175462 13.1131598,12.8906115 13.0215466,12.8367414 C12.9299333,12.7828713 12.8701621,12.7070146 12.8422313,12.6091689 C12.8143004,12.5113232 12.8003352,12.3843455 12.8003352,12.2282322 L12.8003352,8.68271768 C12.8003352,8.47163483 12.8483755,8.31882193 12.9444577,8.22427441 C13.0405399,8.12972688 13.1958333,8.08245383 13.4103424,8.08245383 Z M13.7957864,8.85751979 L13.7957864,12.1391821 L14.5499162,12.1391821 C14.715267,12.1391821 14.8448643,12.1347846 14.938712,12.1259894 C15.0325597,12.1171943 15.1297577,12.0952069 15.2303088,12.0600264 C15.33086,12.0248459 15.418003,11.9753741 15.4917405,11.9116095 C15.8246765,11.6345633 15.991142,11.1574352 15.991142,10.4802111 C15.991142,10.0030759 15.9179642,9.64577955 15.7716064,9.40831135 C15.6252486,9.17084314 15.4448179,9.0196793 15.2303088,8.9548153 C15.0157997,8.8899513 14.7566051,8.85751979 14.4527173,8.85751979 L13.7957864,8.85751979 Z" id="END" fill="#FFFFFF"></path>
        </g>
    </g>
</svg>