<svg width="18px" height="18px" viewBox="0 0 18 18" version="1.1" xmlns="http://www.w3.org/2000/svg" xmlns:xlink="http://www.w3.org/1999/xlink">
    <!-- Generator: Sketch 51.3 (57544) - http://www.bohemiancoding.com/sketch -->
    <title>问题跳转话术</title>
    <desc>Created with Sketch.</desc>
    <defs></defs>
    <g id="Page-1" stroke="none" stroke-width="1" fill="none" fill-rule="evenodd">
        <g id="1-3编辑话术" transform="translate(-1342.000000, -849.000000)">
            <g id="Group-21" transform="translate(1342.000000, 849.000000)">
                <rect id="Rectangle-10-Copy-3" stroke="#A7D472" fill="#A7D472" x="0.5" y="0.5" width="17" height="17" rx="2"></rect>
                <g id="转" transform="translate(3.000000, 3.000000)" fill="#FFFFFF" fill-rule="nonzero">
                    <path d="M2.9513879,3.8970674 L0.706561384,6.14535816 C0.316338307,6.53618343 0.316826484,7.16934823 0.707651758,7.5595713 L2.95703289,9.80548651 C3.34743208,10.1952842 3.97975646,10.1952842 4.37015566,9.80548651 L6.61844557,7.56066084 C7.00927084,7.17043776 7.00975902,6.53727297 6.61953594,6.14644769 C6.61917305,6.14608424 6.61880987,6.14572106 6.61844641,6.14535816 L4.36560104,3.89597703 C3.97477623,3.50575349 3.34161144,3.50624092 2.9513879,3.89706573 C2.95138762,3.89706601 2.95138734,3.89706629 2.95138706,3.89706657 Z M10.4432194,3.31925028 C9.4553473,2.32573318 8.15135612,1.82897464 6.85300993,1.82897464 L6.85300993,0 L4.45953694,2.39347298 L6.85300993,4.78694597 L6.85300993,2.95797133 C7.86346197,2.95797133 8.87391402,3.3418302 9.64727675,4.11519294 C11.1883572,5.65627343 11.1883572,8.16264609 9.64727675,9.70372657 C8.873914,10.4770893 7.86346197,10.8609482 6.85300993,10.8609482 C6.30544653,10.8609482 5.75788314,10.7424035 5.24983463,10.5166042 L4.4087321,11.3577067 C5.17080486,11.7754355 6.01190739,11.9899449 6.85300993,11.9899449 C8.15135612,11.9899449 9.4553473,11.4931863 10.4432194,10.4996692 C12.4302536,8.51828004 12.4302536,5.30063947 10.4432194,3.31925028 Z" id="Shape"></path>
                </g>
            </g>
        </g>
    </g>
</svg>