<svg width="25px" height="18px" viewBox="0 0 25 18" version="1.1" xmlns="http://www.w3.org/2000/svg" xmlns:xlink="http://www.w3.org/1999/xlink">
    <defs></defs>
    <g id="Page-1" stroke="none" stroke-width="1">
        <g id="2收起" transform="translate(-72.000000, -18.000000)">
            <g id="打开" transform="translate(72.000000, 18.000000)">
                <path d="M24.2719708,8.33297577 C24.6310782,8.69212341 24.6310782,9.27437712 24.2719708,9.63352479 L16.4714423,17.4364973 C16.1108654,17.7939372 15.5287973,17.7913942 15.1713574,17.4308185 C14.8160645,17.0724072 14.8161326,16.4945837 15.1715111,16.1362559 L22.9720395,8.33297401 C23.3310759,7.97417589 23.9129367,7.97417589 24.2719699,8.33297406 L24.2719708,8.33297577 Z M16.4714423,0.530003257 L24.2719708,8.33297577 C24.6311061,8.69194093 24.6312453,9.27408017 24.2722795,9.63321547 C23.9133144,9.99235076 23.3311751,9.99248998 22.9720398,9.63352419 L15.1715114,1.83086105 C14.8135888,1.4705934 14.8154915,0.888386098 15.1757583,0.530463557 C15.534182,0.174372518 16.1127665,0.17416833 16.4714439,0.530002151 L16.4714423,0.530003257 Z M0.720966447,8.07548266 L23.5751665,8.07548266 C23.845387,8.07548265 24.0644417,8.35887884 24.0644417,8.70846465 C24.0644417,8.70846465 24.0644417,8.70846465 24.0644417,8.70846465 L24.0644417,9.27320771 C24.0644417,9.62279568 23.8453854,9.9061897 23.5751665,9.9061897 C23.5751665,9.9061897 23.5751665,9.9061897 23.5751665,9.9061897 L0.720966425,9.9061897 C0.450745852,9.90618968 0.231691152,9.62279352 0.231691152,9.27320771 L0.231691152,8.70846465 C0.231691193,8.35887658 0.450747526,8.07548257 0.720966404,8.07548257 Z" id="Shape"></path>
            </g>
        </g>
    </g>
</svg>